<svg xmlns="http://www.w3.org/2000/svg" width="26" height="26" viewBox="0 0 26 26">
  <g id="ic_write_pc" transform="translate(-390 -508)">
    <rect id="guide" width="26" height="26" transform="translate(390 508)" fill="rgba(255,255,255,0)"/>
    <g id="icon" transform="translate(6391 513.266)" fill="none">
      <path d="M-5992.232,10.87l11.577-11.578,4.95,4.951-11.577,11.577-5.531.6ZM-6000,12.735v-2h6v2Zm0-5v-2h8v2Zm0-5v-2h13v2Z" stroke="none"/>
      <path d="M -5990.56591796875 14.16238594055176 L -5988.19775390625 13.90706539154053 L -5978.53369140625 4.243150234222412 L -5980.6552734375 2.120981693267822 L -5990.31640625 11.7834587097168 L -5990.56591796875 14.16238594055176 M -5992.81298828125 16.41625022888184 L -5992.23193359375 10.87038135528564 L -5980.6552734375 -0.7077291011810303 L -5975.70556640625 4.243350982666016 L -5987.2822265625 15.81995105743408 L -5992.81298828125 16.41625022888184 Z M -5993.99951171875 12.7345609664917 L -6000 12.7345609664917 L -6000 10.73486137390137 L -5993.99951171875 10.73486137390137 L -5993.99951171875 12.7345609664917 Z M -5992 7.73530101776123 L -6000 7.73530101776123 L -6000 5.734090805053711 L -5992 5.734090805053711 L -5992 7.73530101776123 Z M -5987.00048828125 2.734530925750732 L -6000 2.734530925750732 L -6000 0.734830915927887 L -5987.00048828125 0.734830915927887 L -5987.00048828125 2.734530925750732 Z" stroke="none" fill="#505051"/>
    </g>
  </g>
</svg>
